<svg width="182" height="51" viewBox="0 0 182 51" fill="none" xmlns="http://www.w3.org/2000/svg">
<path d="M4 21.5958C4 9.69495 12.8976 2 22.7318 2C32.0978 2 40.6207 8.97803 41.3936 19.923H46.8258C47.8793 19.923 48.3945 21.2135 47.6452 21.9543L39.9419 29.8165C39.4736 30.2945 38.7476 30.2945 38.2793 29.8165L30.576 21.9543C30.4154 21.7873 30.3064 21.5759 30.2627 21.3463C30.2187 21.1168 30.2419 20.8791 30.3293 20.6628C30.4164 20.4466 30.5638 20.2612 30.7536 20.1297C30.943 19.9981 31.166 19.9263 31.3953 19.923H36.6871C35.9614 12.1325 30.0608 6.77947 22.7318 6.77947C14.8881 6.77947 8.68296 12.9211 8.68296 21.5958C8.68296 27.1878 13.249 34.596 22.7318 43.438C24.2304 42.0279 25.612 40.6659 26.8764 39.3514C26.4643 38.5219 26.2479 37.6053 26.2441 36.6749C26.2441 35.0906 26.8608 33.571 27.9587 32.4506C29.0563 31.3302 30.5451 30.7007 32.0978 30.7007C33.6504 30.7007 35.1393 31.3302 36.2368 32.4506C37.3347 33.571 37.9515 35.0906 37.9515 36.6749C37.9508 37.5993 37.7392 38.5106 37.3336 39.3365C36.9281 40.1628 36.3398 40.8815 35.6152 41.4356C34.8905 41.9897 34.0493 42.3642 33.1585 42.5292C32.2677 42.6942 31.3513 42.6453 30.4823 42.3865C28.656 44.3461 26.5719 46.3535 24.2772 48.4087C23.3875 49.1971 22.053 49.1971 21.1632 48.4087C9.7368 38.1328 4 29.1952 4 21.5958Z" fill="#DA1212"/>
<path d="M66.9572 20.079H63V18.2126H73.1319V20.079H69.1747V30.0896H66.9572V20.079ZM76.4046 22.3526C77.0187 21.4024 78.0989 20.9274 79.6455 20.9274V22.9464C79.4635 22.9125 79.2986 22.8955 79.1508 22.8955C78.3207 22.8955 77.6725 23.1389 77.2063 23.6251C76.7401 24.1002 76.507 24.79 76.507 25.6951V30.0896H74.3748V21.0292H76.4046V22.3526ZM84.8839 20.9274C86.2257 20.9274 87.2491 21.2497 87.9542 21.8945C88.6706 22.5281 89.0288 23.4894 89.0288 24.7789V30.0896H87.016V28.9867C86.7545 29.3828 86.3792 29.6882 85.8902 29.903C85.4127 30.1066 84.8327 30.2084 84.1504 30.2084C83.4681 30.2084 82.8711 30.0954 82.3594 29.869C81.8477 29.6315 81.4497 29.3091 81.1654 28.9019C80.8925 28.4836 80.7561 28.0138 80.7561 27.4936C80.7561 26.6792 81.0574 26.0286 81.6601 25.5424C82.2741 25.0445 83.235 24.7959 84.5427 24.7959H86.8966V24.6601C86.8966 24.0265 86.7033 23.5403 86.3167 23.201C85.9414 22.8616 85.3785 22.6919 84.628 22.6919C84.1163 22.6919 83.6103 22.7709 83.1099 22.9295C82.6209 23.088 82.2059 23.3086 81.8648 23.5912L81.029 22.0472C81.5066 21.685 82.0808 21.4083 82.7517 21.2158C83.4226 21.0233 84.1334 20.9274 84.8839 20.9274ZM84.5939 28.6644C85.1283 28.6644 85.6003 28.5456 86.0097 28.3081C86.4304 28.0594 86.726 27.7084 86.8966 27.2561V26.2041H84.6963C83.4681 26.2041 82.8541 26.6055 82.8541 27.4088C82.8541 27.7932 83.0076 28.0986 83.3146 28.325C83.6217 28.5514 84.0481 28.6644 84.5939 28.6644ZM100.127 21.0292L96.221 30.0896H94.0206L90.1145 21.0292H92.3319L95.1634 27.7481L98.0802 21.0292H100.127ZM109.773 25.6103C109.773 25.7572 109.761 25.9666 109.739 26.2381H102.592C102.716 26.9056 103.04 27.4369 103.564 27.833C104.098 28.2174 104.758 28.4099 105.543 28.4099C106.543 28.4099 107.368 28.0817 108.016 27.4258L109.159 28.7322C108.749 29.2185 108.232 29.5864 107.606 29.8351C106.981 30.0838 106.276 30.2084 105.491 30.2084C104.49 30.2084 103.609 30.0106 102.848 29.6145C102.085 29.2185 101.494 28.6702 101.074 27.9687C100.664 27.2561 100.46 26.4528 100.46 25.5594C100.46 24.6771 100.658 23.8855 101.057 23.184C101.466 22.4714 102.029 21.9173 102.745 21.5212C103.462 21.1251 104.269 20.9274 105.167 20.9274C106.054 20.9274 106.844 21.1251 107.538 21.5212C108.243 21.9056 108.789 22.4544 109.176 23.167C109.573 23.8685 109.773 24.6829 109.773 25.6103ZM105.167 22.6241C104.485 22.6241 103.905 22.8277 103.427 23.2349C102.961 23.631 102.677 24.1622 102.575 24.8298H107.743C107.652 24.1739 107.373 23.6421 106.907 23.2349C106.441 22.8277 105.861 22.6241 105.167 22.6241ZM111.821 17.5H113.953V30.0896H111.821V17.5ZM130.13 23.9136C130.79 24.1283 131.313 24.4905 131.7 24.9995C132.086 25.4973 132.28 26.1193 132.28 26.8659C132.28 27.895 131.881 28.6925 131.086 29.2582C130.289 29.8123 129.129 30.0896 127.606 30.0896H121.67V18.2126H127.265C128.675 18.2126 129.76 18.4899 130.523 19.044C131.284 19.587 131.665 20.3393 131.665 21.3006C131.665 21.8887 131.529 22.4093 131.256 22.8616C130.983 23.3139 130.608 23.6649 130.13 23.9136ZM123.887 19.9433V23.2179H127.026C127.799 23.2179 128.391 23.0822 128.8 22.8107C129.22 22.5281 129.431 22.1209 129.431 21.5891C129.431 21.0461 129.22 20.6389 128.8 20.3674C128.391 20.0848 127.799 19.9433 127.026 19.9433H123.887ZM127.469 28.359C129.186 28.359 130.045 27.7879 130.045 26.6453C130.045 25.5026 129.186 24.9316 127.469 24.9316H123.887V28.359H127.469ZM143.259 21.0292V30.0896H141.23V28.9358C140.889 29.3431 140.462 29.6596 139.95 29.886C139.439 30.1007 138.888 30.2084 138.296 30.2084C137.079 30.2084 136.118 29.8749 135.413 29.2073C134.72 28.5286 134.373 27.5276 134.373 26.2041V21.0292H136.505V25.9157C136.505 26.7301 136.687 27.3409 137.051 27.7481C137.426 28.1442 137.955 28.342 138.637 28.342C139.399 28.342 140.002 28.1103 140.445 27.6463C140.9 27.1713 141.127 26.4926 141.127 25.6103V21.0292H143.259ZM154.972 17.5V30.0896H152.926V28.9189C152.573 29.3489 152.135 29.6713 151.612 29.886C151.1 30.1007 150.532 30.2084 149.906 30.2084C149.031 30.2084 148.24 30.0159 147.535 29.6315C146.841 29.2471 146.296 28.7041 145.898 28.0026C145.5 27.29 145.301 26.4756 145.301 25.5594C145.301 24.6432 145.5 23.8346 145.898 23.1331C146.296 22.4316 146.841 21.8887 147.535 21.5042C148.24 21.1198 149.031 20.9274 149.906 20.9274C150.509 20.9274 151.06 21.0292 151.561 21.2328C152.061 21.4364 152.487 21.7418 152.84 22.149V17.5H154.972ZM150.162 28.3929C150.674 28.3929 151.135 28.28 151.544 28.0536C151.953 27.816 152.277 27.4825 152.516 27.0525C152.755 26.6225 152.874 26.1251 152.874 25.5594C152.874 24.9936 152.755 24.4963 152.516 24.0663C152.277 23.6363 151.953 23.3086 151.544 23.0822C151.135 22.8446 150.674 22.7259 150.162 22.7259C149.651 22.7259 149.19 22.8446 148.781 23.0822C148.371 23.3086 148.047 23.6363 147.808 24.0663C147.57 24.4963 147.45 24.9936 147.45 25.5594C147.45 26.1251 147.57 26.6225 147.808 27.0525C148.047 27.4825 148.371 27.816 148.781 28.0536C149.19 28.28 149.651 28.3929 150.162 28.3929ZM166.682 17.5V30.0896H164.635V28.9189C164.283 29.3489 163.845 29.6713 163.322 29.886C162.81 30.1007 162.242 30.2084 161.616 30.2084C160.741 30.2084 159.95 30.0159 159.245 29.6315C158.552 29.2471 158.006 28.7041 157.608 28.0026C157.21 27.29 157.011 26.4756 157.011 25.5594C157.011 24.6432 157.21 23.8346 157.608 23.1331C158.006 22.4316 158.552 21.8887 159.245 21.5042C159.95 21.1198 160.741 20.9274 161.616 20.9274C162.219 20.9274 162.771 21.0292 163.271 21.2328C163.771 21.4364 164.198 21.7418 164.55 22.149V17.5H166.682ZM161.872 28.3929C162.384 28.3929 162.844 28.28 163.254 28.0536C163.663 27.816 163.987 27.4825 164.226 27.0525C164.465 26.6225 164.584 26.1251 164.584 25.5594C164.584 24.9936 164.465 24.4963 164.226 24.0663C163.987 23.6363 163.663 23.3086 163.254 23.0822C162.844 22.8446 162.384 22.7259 161.872 22.7259C161.36 22.7259 160.9 22.8446 160.49 23.0822C160.081 23.3086 159.757 23.6363 159.518 24.0663C159.279 24.4963 159.16 24.9936 159.16 25.5594C159.16 26.1251 159.279 26.6225 159.518 27.0525C159.757 27.4825 160.081 27.816 160.49 28.0536C160.9 28.28 161.36 28.3929 161.872 28.3929ZM178 21.0292L173.736 30.8192C173.338 31.8033 172.855 32.4931 172.286 32.8892C171.717 33.2964 171.03 33.5 170.222 33.5C169.767 33.5 169.318 33.4263 168.874 33.2794C168.431 33.1326 168.067 32.9289 167.783 32.6686L168.636 31.1076C168.84 31.3001 169.079 31.4528 169.352 31.5657C169.636 31.6787 169.921 31.7354 170.205 31.7354C170.58 31.7354 170.887 31.6394 171.126 31.447C171.376 31.2545 171.604 30.9321 171.808 30.4798L171.962 30.1235L167.987 21.0292H170.205L173.071 27.7312L175.953 21.0292H178Z" fill="#041562"/>
</svg>
